<svg width="13" height="9" viewBox="0 0 13 9" fill="none" xmlns="http://www.w3.org/2000/svg">
<path d="M10.8639 1.23829C10.0764 0.922228 9.24551 0.696646 8.39184 0.567173C8.38411 0.566033 8.37616 0.567017 8.3691 0.569989C8.36203 0.572961 8.35619 0.577774 8.35238 0.583768C8.24536 0.749723 8.12696 0.966792 8.04423 1.13673C7.12404 1.01459 6.18804 1.01459 5.26785 1.13673C5.17557 0.947422 5.07117 0.762809 4.95515 0.583768C4.95125 0.57784 4.9454 0.573082 4.93836 0.57012C4.93131 0.567157 4.92341 0.56613 4.91568 0.567173C4.06182 0.695954 3.23073 0.921652 2.44366 1.23829C2.43692 1.24054 2.43129 1.24477 2.42772 1.25024C0.85358 3.30742 0.421716 5.31415 0.633473 7.29565C0.634232 7.30494 0.641063 7.31424 0.649412 7.32021C1.56606 7.91407 2.59135 8.36749 3.68157 8.66113C3.68926 8.66325 3.69754 8.66317 3.70518 8.6609C3.71282 8.65864 3.71944 8.65429 3.72407 8.64851C3.95784 8.36971 4.1658 8.07564 4.34492 7.7663C4.34866 7.75993 4.34993 7.75267 4.34857 7.74561C4.3472 7.73855 4.34326 7.73207 4.33733 7.72713C4.33341 7.72389 4.32876 7.7214 4.32367 7.71983C3.99667 7.60991 3.67997 7.47786 3.37645 7.32486C3.36798 7.32065 3.36167 7.31376 3.35885 7.30561C3.35602 7.29745 3.35689 7.28866 3.36127 7.28104C3.36386 7.2761 3.36776 7.27178 3.37266 7.26843C3.43641 7.22661 3.50017 7.1828 3.56089 7.13899C3.56625 7.13522 3.57269 7.13279 3.57951 7.13197C3.58632 7.13115 3.59327 7.13197 3.5996 7.13434C5.58739 7.92827 7.73912 7.92827 9.70262 7.13434C9.70917 7.13186 9.71638 7.13098 9.72346 7.1318C9.73055 7.13262 9.73725 7.1351 9.74284 7.13899C9.80356 7.1828 9.86732 7.22661 9.93107 7.26843C9.93624 7.27173 9.94039 7.2761 9.94315 7.28115C9.94591 7.2862 9.9472 7.29177 9.9469 7.29736C9.9466 7.30295 9.94472 7.30839 9.94143 7.31319C9.93813 7.31798 9.93353 7.32199 9.92804 7.32486C9.62521 7.47926 9.30811 7.61116 8.98006 7.71917C8.97483 7.72082 8.97007 7.72346 8.96614 7.72691C8.9622 7.73035 8.95918 7.7345 8.95729 7.73908C8.95553 7.74351 8.95483 7.74821 8.95522 7.75289C8.95561 7.75757 8.95709 7.76213 8.95957 7.7663C9.14172 8.07497 9.35045 8.36971 9.57966 8.64851C9.58429 8.65429 9.59091 8.65864 9.59855 8.6609C9.60619 8.66317 9.61447 8.66325 9.62216 8.66113C10.7142 8.3684 11.7412 7.91493 12.6589 7.32021C12.6635 7.31743 12.6673 7.31377 12.67 7.30952C12.6728 7.30527 12.6744 7.30053 12.6748 7.29565C12.9283 5.00481 12.2505 3.01468 10.879 1.25091C10.8777 1.24799 10.8756 1.24537 10.873 1.24319C10.8704 1.24102 10.8673 1.23935 10.8639 1.23829ZM4.64169 6.08882C4.04285 6.08882 3.55026 5.60822 3.55026 5.01875C3.55026 4.42861 4.03374 3.94801 4.64169 3.94801C5.25419 3.94801 5.74222 4.43259 5.73311 5.01875C5.73311 5.60822 5.24964 6.08882 4.64169 6.08882ZM8.67647 6.08882C8.07838 6.08882 7.58504 5.60822 7.58504 5.01875C7.58504 4.42861 8.06852 3.94801 8.67647 3.94801C9.28897 3.94801 9.77776 4.43259 9.76789 5.01875C9.76789 5.60822 9.28897 6.08882 8.67647 6.08882Z" fill="white"/>
</svg>
