<svg width="13" height="13" viewBox="0 0 13 13" fill="none" xmlns="http://www.w3.org/2000/svg">
<path fill-rule="evenodd" clip-rule="evenodd" d="M4.43365 0.174371C5.08114 0.144563 5.28759 0.137939 6.93695 0.137939C8.58632 0.137939 8.79277 0.145115 9.43971 0.174371C10.0866 0.203627 10.5282 0.30685 10.9146 0.456442C11.3193 0.609345 11.6863 0.848359 11.9899 1.15748C12.299 1.46052 12.5375 1.82705 12.6899 2.23221C12.84 2.61861 12.9427 3.06021 12.9725 3.70605C13.0023 4.35464 13.0089 4.56109 13.0089 6.2099C13.0089 7.85927 13.0017 8.06572 12.9725 8.71321C12.9432 9.35904 12.84 9.80064 12.6899 10.187C12.5375 10.5923 12.2987 10.9594 11.9899 11.2629C11.6863 11.572 11.3193 11.8105 10.9146 11.9628C10.5282 12.113 10.0866 12.2156 9.44081 12.2454C8.79277 12.2752 8.58632 12.2819 6.93695 12.2819C5.28759 12.2819 5.08114 12.2747 4.43365 12.2454C3.78781 12.2162 3.34622 12.113 2.95982 11.9628C2.55461 11.8104 2.18748 11.5716 1.88398 11.2629C1.57507 10.9597 1.33602 10.5927 1.18349 10.1876C1.0339 9.80119 0.93123 9.3596 0.901422 8.71376C0.871614 8.06516 0.86499 7.85872 0.86499 6.2099C0.86499 4.56054 0.872166 4.35409 0.901422 3.70715C0.930678 3.06021 1.0339 2.61861 1.18349 2.23221C1.33624 1.82709 1.57548 1.46014 1.88453 1.15693C2.1876 0.848084 2.55436 0.609037 2.95927 0.456442C3.34566 0.30685 3.78726 0.204179 4.4331 0.174371H4.43365ZM9.39058 1.26732C8.75026 1.23807 8.55817 1.232 6.93695 1.232C5.31574 1.232 5.12364 1.23807 4.48333 1.26732C3.89104 1.29437 3.56977 1.39318 3.3556 1.47653C3.07243 1.58693 2.86984 1.71775 2.65732 1.93027C2.45587 2.12626 2.30083 2.36485 2.20358 2.62855C2.12023 2.84272 2.02142 3.16399 1.99438 3.75628C1.96512 4.39659 1.95905 4.58869 1.95905 6.2099C1.95905 7.83112 1.96512 8.02321 1.99438 8.66353C2.02142 9.25582 2.12023 9.57708 2.20358 9.79126C2.30073 10.0546 2.45584 10.2936 2.65732 10.4895C2.85328 10.691 3.0923 10.8461 3.3556 10.9433C3.56977 11.0266 3.89104 11.1254 4.48333 11.1525C5.12364 11.1817 5.31519 11.1878 6.93695 11.1878C8.55872 11.1878 8.75026 11.1817 9.39058 11.1525C9.98287 11.1254 10.3041 11.0266 10.5183 10.9433C10.8015 10.8329 11.0041 10.7021 11.2166 10.4895C11.4181 10.2936 11.5732 10.0546 11.6703 9.79126C11.7537 9.57708 11.8525 9.25582 11.8795 8.66353C11.9088 8.02321 11.9149 7.83112 11.9149 6.2099C11.9149 4.58869 11.9088 4.39659 11.8795 3.75628C11.8525 3.16399 11.7537 2.84272 11.6703 2.62855C11.5599 2.34537 11.4291 2.14279 11.2166 1.93027C11.0206 1.72883 10.782 1.5738 10.5183 1.47653C10.3041 1.39318 9.98287 1.29437 9.39058 1.26732ZM6.1614 8.08172C6.59453 8.26202 7.07682 8.28636 7.5259 8.15057C7.97497 8.01478 8.36298 7.7273 8.62364 7.33721C8.8843 6.94713 9.00145 6.47865 8.95508 6.01179C8.90871 5.54493 8.70169 5.10865 8.36939 4.77747C8.15755 4.56577 7.90141 4.40367 7.61941 4.30284C7.3374 4.20201 7.03655 4.16495 6.73851 4.19435C6.44047 4.22375 6.15265 4.31886 5.89578 4.47284C5.63891 4.62682 5.41937 4.83584 5.25298 5.08485C5.08658 5.33386 4.97747 5.61667 4.93349 5.91291C4.88951 6.20915 4.91176 6.51146 4.99864 6.79806C5.08552 7.08467 5.23486 7.34846 5.43592 7.57042C5.63698 7.79239 5.88475 7.96701 6.1614 8.08172ZM4.73007 4.00302C5.01988 3.71321 5.36394 3.48332 5.7426 3.32647C6.12126 3.16963 6.5271 3.0889 6.93695 3.0889C7.34681 3.0889 7.75265 3.16963 8.13131 3.32647C8.50997 3.48332 8.85402 3.71321 9.14384 4.00302C9.43365 4.29283 9.66354 4.63689 9.82038 5.01555C9.97723 5.3942 10.058 5.80005 10.058 6.2099C10.058 6.61976 9.97723 7.0256 9.82038 7.40426C9.66354 7.78292 9.43365 8.12697 9.14384 8.41679C8.55854 9.00209 7.7647 9.33091 6.93695 9.33091C6.10921 9.33091 5.31537 9.00209 4.73007 8.41679C4.14477 7.83148 3.81595 7.03764 3.81595 6.2099C3.81595 5.38216 4.14477 4.58832 4.73007 4.00302ZM10.7501 3.5537C10.822 3.48595 10.8795 3.40448 10.9192 3.31411C10.959 3.22375 10.9802 3.12632 10.9817 3.0276C10.9831 2.92889 10.9647 2.83088 10.9276 2.7394C10.8905 2.64791 10.8354 2.5648 10.7656 2.49499C10.6958 2.42518 10.6127 2.37008 10.5212 2.33296C10.4297 2.29585 10.3317 2.27747 10.233 2.2789C10.1342 2.28034 10.0368 2.30158 9.94646 2.34134C9.85609 2.38111 9.77462 2.4386 9.70687 2.51042C9.57512 2.65009 9.50298 2.83561 9.50578 3.0276C9.50858 3.21959 9.58609 3.40293 9.72186 3.5387C9.85764 3.67448 10.041 3.75199 10.233 3.75479C10.425 3.75759 10.6105 3.68545 10.7501 3.5537Z" fill="white"/>
</svg>
