<svg width="20" height="21" viewBox="0 0 20 21" fill="none" xmlns="http://www.w3.org/2000/svg">
<path d="M10.195 2.09894C8.42425 2.10103 6.7266 2.80539 5.47446 4.05753C4.22233 5.30966 3.51797 7.00732 3.51588 8.7781C3.51376 10.2252 3.98644 11.633 4.86142 12.7856C4.86142 12.7856 5.04358 13.0254 5.07334 13.06L10.195 19.1004L15.3192 13.057C15.3459 13.0248 15.5286 12.7856 15.5286 12.7856L15.5293 12.7838C16.4038 11.6317 16.8763 10.2245 16.8742 8.7781C16.8721 7.00732 16.1677 5.30966 14.9156 4.05753C13.6635 2.80539 11.9658 2.10103 10.195 2.09894ZM10.195 11.2069C9.71467 11.2069 9.24509 11.0644 8.84568 10.7976C8.44626 10.5307 8.13496 10.1514 7.95113 9.70755C7.7673 9.26375 7.7192 8.7754 7.81292 8.30427C7.90663 7.83313 8.13795 7.40036 8.47763 7.06069C8.8173 6.72102 9.25007 6.4897 9.7212 6.39598C10.1923 6.30227 10.6807 6.35036 11.1245 6.53419C11.5683 6.71802 11.9476 7.02933 12.2145 7.42874C12.4814 7.82815 12.6238 8.29773 12.6238 8.7781C12.623 9.42201 12.3669 10.0393 11.9116 10.4946C11.4562 10.9499 10.8389 11.2061 10.195 11.2069Z" fill="white"/>
</svg>
