<svg width="20" height="20" viewBox="0 0 20 20" fill="none" xmlns="http://www.w3.org/2000/svg">
<path d="M16.6716 8.9692H18.2908C18.2908 4.81598 15.1552 1.68365 10.9963 1.68365V3.30285C14.2849 3.30285 16.6716 5.68548 16.6716 8.9692Z" fill="white"/>
<path d="M11.0046 6.54123C12.7072 6.54123 13.4334 7.26744 13.4334 8.97002H15.0526C15.0526 6.35907 13.6156 4.92204 11.0046 4.92204V6.54123ZM13.7751 10.9479C13.6195 10.8065 13.4151 10.7311 13.205 10.7375C12.9948 10.744 12.7955 10.8319 12.6489 10.9827L10.7116 12.9751C10.2452 12.886 9.30772 12.5938 8.34268 11.6312C7.37764 10.6653 7.08538 9.72537 6.99875 9.26228L8.98955 7.32411C9.14046 7.17768 9.22849 6.97827 9.23498 6.76809C9.24148 6.5579 9.16594 6.35344 9.02436 6.19796L6.0329 2.90858C5.89126 2.75261 5.69439 2.65801 5.48412 2.64486C5.27385 2.63171 5.06673 2.70104 4.90676 2.83814L3.14994 4.3448C3.00997 4.48528 2.92642 4.67224 2.91515 4.87023C2.90301 5.07263 2.67146 9.86705 6.38913 13.5863C9.63236 16.8288 13.6949 17.066 14.8138 17.066C14.9773 17.066 15.0777 17.0611 15.1044 17.0595C15.3024 17.0484 15.4892 16.9645 15.629 16.8239L17.1349 15.0663C17.2721 14.9064 17.3416 14.6993 17.3286 14.4891C17.3156 14.2788 17.2211 14.0819 17.0653 13.9401L13.7751 10.9479Z" fill="white"/>
</svg>
