<svg width="13" height="11" viewBox="0 0 13 11" fill="none" xmlns="http://www.w3.org/2000/svg">
<path d="M12.2909 1.91118C11.8443 2.10088 11.3583 2.23741 10.8577 2.29059C11.3775 1.98654 11.7667 1.50619 11.9523 0.939665C11.4646 1.22535 10.9304 1.42569 10.3732 1.53177C10.1403 1.28663 9.85872 1.09134 9.54586 0.958071C9.233 0.824801 8.89563 0.756406 8.55476 0.757147C7.17559 0.757147 6.06643 1.858 6.06643 3.20893C6.06643 3.39863 6.08978 3.58833 6.12772 3.77085C4.06263 3.6645 2.22082 2.69299 0.996362 1.20554C0.773252 1.5808 0.656334 2.00808 0.657773 2.44292C0.657773 3.29372 1.09706 4.04391 1.76694 4.48512C1.37217 4.46981 0.986646 4.36295 0.64172 4.17325V4.20343C0.64172 5.39483 1.49695 6.38215 2.63676 6.60922C2.42275 6.66397 2.20259 6.69197 1.98148 6.69258C1.81948 6.69258 1.66624 6.67677 1.51154 6.65521C1.82678 7.62673 2.74476 8.33237 3.83787 8.35536C2.98265 9.01501 1.91143 9.40304 0.748258 9.40304C0.53956 9.40304 0.346915 9.39586 0.146973 9.37286C1.2503 10.0699 2.55941 10.4723 3.96922 10.4723C8.546 10.4723 11.0504 6.73857 11.0504 3.49779C11.0504 3.39144 11.0504 3.28509 11.0431 3.17875C11.5276 2.82952 11.9523 2.39694 12.2909 1.91118Z" fill="white"/>
</svg>
